<svg width="65" height="52" viewBox="0 0 65 52" fill="none" xmlns="http://www.w3.org/2000/svg">
<path d="M61.27 31.8816H57.97V15.0613C57.97 12.093 55.55 9.67442 52.58 9.67442H42.13V4.5074C42.13 2.08879 40.15 1.31055e-08 37.62 1.31055e-08H19.03C16.61 1.31055e-08 14.52 1.97886 14.52 4.5074V15.2812H6.05C2.75 15.2812 0 17.9197 0 21.3277V45.9535C0 49.2516 2.64 52 6.05 52H30.69C33.99 52 36.74 49.3615 36.74 45.9535V43.4249H46.86V46.1734C46.86 47.8224 48.29 49.1416 49.94 49.1416H61.16C62.81 49.1416 64.13 47.8224 64.13 46.1734V34.9598C64.24 33.2008 62.92 31.8816 61.27 31.8816ZM35.2 45.9535C35.2 48.3721 33.22 50.3509 30.8 50.3509H6.05C3.63 50.3509 1.65 48.3721 1.65 45.9535V21.3277C1.65 18.9091 3.63 16.9302 6.05 16.9302H14.52V23.0867C14.52 25.5053 16.5 27.5941 19.03 27.5941H24.09V38.0381C24.09 41.0063 26.51 43.4249 29.48 43.4249H35.2V45.9535ZM62.92 46.1734C62.92 47.1628 62.15 47.9323 61.16 47.9323H49.94C48.95 47.9323 48.18 47.1628 48.18 46.1734V43.4249H52.47C55.44 43.4249 57.86 41.0063 57.86 38.0381V33.2008H61.16C62.15 33.2008 62.92 33.9704 62.92 34.9598V46.1734V46.1734Z" fill="#8791AB"/>
<path d="M56.87 9.89433H61.27C62.04 9.89433 62.7 9.23471 62.7 8.46516V4.06769C62.7 3.29814 62.04 2.63852 61.27 2.63852H56.87C56.1 2.63852 55.44 3.29814 55.44 4.06769V8.46516C55.44 9.23471 56.1 9.89433 56.87 9.89433Z" fill="#8791AB"/>
<path d="M22.33 42.1058H17.93C17.16 42.1058 16.5 42.7654 16.5 43.535V47.9324C16.5 48.702 17.16 49.3616 17.93 49.3616H22.33C23.1 49.3616 23.76 48.702 23.76 47.9324V43.535C23.76 42.7654 23.1 42.1058 22.33 42.1058Z" fill="#8791AB"/>
</svg>
