<svg width="35" height="35" viewBox="0 0 35 35" fill="none" xmlns="http://www.w3.org/2000/svg">
<path d="M17.1975 3.26666C25.2941 3.26666 31.8844 9.79999 31.8844 17.8267C31.8844 25.8533 25.2941 32.3867 17.1975 32.3867C9.10086 32.3867 2.51058 25.8533 2.51058 17.8267C2.51058 9.79999 9.10086 3.26666 17.1975 3.26666ZM17.1975 0.777771C7.68866 0.777771 0 8.39999 0 17.8267C0 27.2533 7.68866 34.8755 17.1975 34.8755C26.7063 34.8755 34.395 27.2533 34.395 17.8267C34.395 8.4311 26.7063 0.777771 17.1975 0.777771Z" fill="white" fill-opacity="0.5"/>
<path d="M13.2119 16.8622V19.2266H17.1661C17.0092 20.2533 15.9736 22.2133 13.2119 22.2133C10.8269 22.2133 8.91257 20.2533 8.91257 17.8577C8.91257 15.4622 10.8583 13.5022 13.2119 13.5022C14.5614 13.5022 15.4715 14.0622 15.9736 14.5599L17.8565 12.7555C16.6326 11.6355 15.0635 10.9511 13.1806 10.9511C9.32053 10.9511 6.21368 14.031 6.21368 17.8577C6.21368 21.6844 9.32053 24.7644 13.1806 24.7644C17.1975 24.7644 19.865 21.9644 19.865 18.0133C19.865 17.5466 19.8022 17.2044 19.7708 16.8622H13.2119Z" fill="white" fill-opacity="0.5"/>
<path d="M28.1185 16.8622H26.1414V14.9022H24.1643V16.8622H22.1873V18.8222H24.1643V20.7822H26.1414V18.8222H28.1185V16.8622Z" fill="white" fill-opacity="0.5"/>
</svg>
