<svg width="35" height="35" viewBox="0 0 35 35" fill="none" xmlns="http://www.w3.org/2000/svg">
<path d="M17.1975 3.35998C25.2941 3.35998 31.8844 9.89332 31.8844 17.92C31.8844 25.9466 25.2941 32.48 17.1975 32.48C9.10086 32.5111 2.51058 25.9778 2.51058 17.9511C2.51058 9.89332 9.10086 3.35998 17.1975 3.35998ZM17.1975 0.871094C7.68866 0.871094 0 8.52443 0 17.9511C0 27.3778 7.68866 35 17.1975 35C26.7063 35 34.395 27.3778 34.395 17.9511C34.4264 8.52443 26.7063 0.871094 17.1975 0.871094Z" fill="white" fill-opacity="0.5"/>
<path d="M27.8361 11.4178C27.0515 11.76 26.2042 12.0089 25.3255 12.1022C26.2356 11.5733 26.926 10.7333 27.2398 9.70668C26.3925 10.2045 25.451 10.5467 24.4782 10.7645C23.6936 9.92446 22.5638 9.39557 21.3086 9.39557C18.8921 9.39557 16.9464 11.3245 16.9464 13.72C16.9464 14.0622 16.9778 14.3733 17.0719 14.7156C13.463 14.5289 10.2306 12.8178 8.09661 10.2045C7.72002 10.8578 7.50035 11.5733 7.50035 12.3822C7.50035 13.8756 8.2849 15.2133 9.44605 15.9911C8.72426 15.96 8.06523 15.7733 7.46896 15.4622C7.46896 15.4933 7.46896 15.4933 7.46896 15.5245C7.46896 17.6089 8.97531 19.3511 10.9524 19.7556C10.5758 19.8489 10.1992 19.9111 9.79125 19.9111C9.50881 19.9111 9.22637 19.88 8.97531 19.8489C9.5402 21.56 11.1407 22.8045 13.055 22.8356C11.5487 23.9867 9.69711 24.6711 7.65726 24.6711C7.31205 24.6711 6.96685 24.64 6.62164 24.6089C8.53596 25.8222 10.8269 26.5378 13.3061 26.5378C21.3086 26.5378 25.7021 19.9422 25.7021 14.2489C25.7021 14.0622 25.7021 13.8756 25.7021 13.6889C26.518 13.0356 27.2398 12.2889 27.8361 11.4178Z" fill="white" fill-opacity="0.5"/>
</svg>
