<svg width="35" height="35" viewBox="0 0 35 35" fill="none" xmlns="http://www.w3.org/2000/svg">
<path d="M17.1975 2.48889C25.2941 2.48889 31.8844 9.02222 31.8844 17.0489C31.8844 25.0756 25.2941 31.6089 17.1975 31.6089C9.10086 31.6089 2.51058 25.0756 2.51058 17.0489C2.51058 9.02222 9.10086 2.48889 17.1975 2.48889ZM17.1975 0C7.68866 0 1.91542e-06 7.62222 1.91542e-06 17.0489C1.91542e-06 26.4756 7.68866 34.0978 17.1975 34.0978C26.7063 34.0978 34.395 26.4756 34.395 17.0489C34.4264 7.62222 26.7063 0 17.1975 0Z" fill="white" fill-opacity="0.5"/>
<path fill-rule="evenodd" clip-rule="evenodd" d="M24.5723 19.3821C25.2941 20.0976 26.0787 20.7509 26.7377 21.5287C27.0201 21.8709 27.3026 22.2443 27.5222 22.6487C27.8361 23.2087 27.5536 23.8621 27.0201 23.8932H23.7878C22.9718 23.9554 22.2814 23.6443 21.7479 23.0532C21.3086 22.6176 20.9006 22.1198 20.4612 21.6532C20.2729 21.4665 20.116 21.2798 19.8964 21.1554C19.457 20.8754 19.0804 20.9687 18.8294 21.4043C18.5783 21.8709 18.5155 22.3687 18.4841 22.8976C18.4528 23.6443 18.2331 23.8621 17.4485 23.8932C15.8167 23.9554 14.2789 23.7376 12.8353 22.8976C11.58 22.182 10.5758 21.1554 9.72849 20.0043C8.06523 17.7643 6.77856 15.3065 5.6488 12.7865C5.39774 12.2265 5.58603 11.9154 6.21367 11.9154C7.24929 11.8843 8.31629 11.8843 9.3519 11.9154C9.79125 11.9154 10.0737 12.1643 10.2306 12.5687C10.7955 13.9687 11.4859 15.2754 12.3646 16.4887C12.5843 16.7998 12.8353 17.1421 13.1805 17.3598C13.5571 17.6087 13.8396 17.5154 14.0279 17.1109C14.1534 16.8621 14.1848 16.5821 14.2162 16.3021C14.3103 15.3376 14.3103 14.3732 14.1534 13.4087C14.0593 12.8176 13.714 12.4132 13.1178 12.3198C12.804 12.2576 12.8667 12.1332 12.9922 11.9776C13.2433 11.6665 13.4944 11.4798 13.9651 11.4798H17.6054C18.1703 11.6043 18.2959 11.8532 18.39 12.4132V16.4265C18.39 16.6443 18.5155 17.2976 18.8921 17.4532C19.2059 17.5465 19.4256 17.2976 19.6139 17.1109C20.4926 16.2087 21.1203 15.1198 21.6538 13.9998C21.9048 13.5021 22.1245 13.0043 22.3128 12.4754C22.4697 12.102 22.6894 11.9154 23.1287 11.9154H26.6435C26.7377 11.9154 26.8632 11.9154 26.9574 11.9465C27.5536 12.0398 27.7105 12.2887 27.5222 12.8798C27.2398 13.7821 26.6749 14.5287 26.1414 15.2754C25.5452 16.0843 24.9175 16.8621 24.3526 17.6709C23.8819 18.3865 23.9133 18.7598 24.5723 19.3821Z" fill="white" fill-opacity="0.5"/>
</svg>
